<?xml version="1.0" encoding="utf-8"?>
<!-- Generator: Adobe Illustrator 25.2.3, SVG Export Plug-In . SVG Version: 6.00 Build 0)  -->
<svg version="1.1" id="Layer_1" xmlns="http://www.w3.org/2000/svg" xmlns:xlink="http://www.w3.org/1999/xlink" x="0px" y="0px"
	 viewBox="0 0 900 900" style="enable-background:new 0 0 900 900;" xml:space="preserve">
<style type="text/css">
	.st0{fill:#272324;}
	.st1{fill:#C13433;}
</style>
<g>
	<path class="st0" d="M416,875.6l-24.7-0.9v-3.9c0-6.2,2.5-68.9,2.8-69.2c0.1-0.1,11.5,0.3,25.3,0.8c13.7,0.6,26.1,1,27.4,1h2.4
		l-0.3,7.2c-0.2,4-0.4,7.3-0.6,7.4c-0.1,0.1-8.8-0.1-19.4-0.6c-10.5-0.4-19.2-0.7-19.2-0.7c-0.1,0.1-0.3,3.3-0.4,7.1l-0.4,7l6.1,0.4
		c3.3,0.2,11.1,0.6,17.3,0.8l11.1,0.4v2c0,1.1-0.2,4.3-0.4,7.2l-0.4,5.2l-16.4-0.4c-9-0.3-16.6-0.5-17-0.6
		c-0.5-0.1-1.6,13.7-1.1,14.6c0.1,0.1,8.2,0.5,18.2,0.9c9.9,0.3,18.7,0.7,19.5,0.9c1.3,0.3,1.4,0.5,1.4,7.5v7.2l-3.3-0.1
		C442.1,876.6,429.5,876.1,416,875.6L416,875.6z"/>
	<path class="st0" d="M485.7,875.2c-0.4-1.1-11.5-68.9-11.5-70.3c0-1.2,1.3-1.5,18.6-4.3c15.1-2.4,19.5-3,23.4-2.7
		c13.7,0.9,22.1,10.2,22.1,24.6c0,6.8-1.8,11.4-6,15.7c-1.8,1.8-3.8,3.6-4.4,4c-1.1,0.6-0.2,1.7,9.2,11.5c5.7,6,10.5,11.2,10.7,11.5
		c0.1,0.3-3.9,1.3-9,2.1l-9.2,1.5l-5.9-6.2c-3.2-3.5-7.5-8-9.7-10.2l-3.8-4l-4.3,0.8c-2.4,0.4-5.1,0.9-6,1.1l-1.6,0.3l1.8,11.2
		c1.1,6.2,1.8,11.4,1.6,11.5c-0.1,0.1-3.8,0.8-8,1.4C488.3,875.5,485.9,875.7,485.7,875.2z M506.7,834.1c8.5-1.4,10.1-2.1,12.9-5
		c3.6-3.7,2.8-10.7-1.6-14.1c-3.2-2.4-6.6-2.6-16.4-0.9c-4.7,0.8-8.7,1.6-8.8,1.8c-0.1,0.1,0.5,4.7,1.4,10.2l1.6,9.9l1.6-0.3
		C498.3,835.5,502.5,834.8,506.7,834.1z"/>
	<path class="st0" d="M319,859.9c-3.5-0.9-6.5-2.1-6.7-2.6s-2.4-17-4.6-36.7c-2.3-19.6-4.3-36.9-4.5-38.4c-0.3-2.2-0.2-2.7,0.6-2.7
		c1.3,0,15.6,3.8,16.2,4.3c0.2,0.2,1.4,12.3,2.8,26.9c1.4,14.6,2.6,26.5,2.8,26.4c0.2,0,7.2-9.7,15.6-21.6
		c8.5-11.9,15.7-21.6,16.1-21.6c1.2,0,15.6,3.9,16.1,4.3c0.4,0.4-46.5,62.9-47.5,63.2C325.4,861.5,322.4,860.8,319,859.9z"/>
	<path class="st0" d="M580.8,849.4c-2.2-0.5-4.3-1.1-4.6-1.4c-0.5-0.5,2.9-12.7,4-14c0.2-0.3,2,0,4.1,0.4c5.7,1.4,12.7,1.2,17.6-0.4
		c8.3-2.8,11.5-8.2,7.1-12.5l-1.9-1.9l-7,0.4c-3.9,0.3-9.4,0.6-12.4,0.9c-13.4,1.3-20.1-1.8-24.3-11.2c-2.1-4.6-2.6-12-1.1-16.2
		c3.8-10.3,15.7-17.5,30-18.2c6.8-0.3,15.1,0.8,14.6,2c-0.1,0.4-0.9,3.7-1.7,7.5l-1.4,6.7l-2.3-0.4c-1.3-0.3-5.1-0.5-8.5-0.5
		c-5.2,0.1-6.8,0.3-9.6,1.5c-5.8,2.6-7.9,6.8-5.1,10.3c2.1,2.7,4.8,3.1,14.7,1.9c12-1.4,18.7-1,23.4,1.4
		c6.4,3.3,10.4,10.5,10.4,19.1c0,5.3-1.3,9-4.7,13.2c-2.3,2.8-8,6.9-12.3,8.8C601.6,850.2,589.7,851.3,580.8,849.4L580.8,849.4z"/>
	<path class="st0" d="M244.5,830.8c-3.8-1.8-6.8-3.5-6.8-3.9c0-1.1,30.2-65.6,30.8-65.6c0.8,0,14.4,6.5,14.4,6.8
		c0,1-30.5,65.6-31.1,65.7C251.5,833.9,248.2,832.6,244.5,830.8z"/>
	<path class="st0" d="M648.2,788.9c-10-16.9-18.3-31.1-18.4-31.6c-0.1-0.6,11.5-8,13.4-8.4c0.6-0.2,36.8,60.3,37.2,62.2
		c0.1,0.6-11.4,7.9-13.4,8.4C666.7,819.6,658.3,805.8,648.2,788.9L648.2,788.9z"/>
	<path class="st0" d="M195.3,803.8c-3.1-2.1-5.6-3.9-5.7-3.9c-0.1-0.1-0.7-12.9-1.4-28.6c-0.7-15.6-1.4-28.5-1.4-28.6
		c-0.1-0.1-5.9,8.2-12.9,18.3c-8.7,12.4-13.1,18.4-13.7,18.1c-0.5-0.1-3.6-2.1-6.8-4.5c-4-2.8-5.8-4.4-5.5-4.9
		c1.6-2.6,41.2-59.3,41.4-59.3c0.1,0,2.9,1.8,6.1,4.1l5.8,4.1l0.4,4.6c0.3,2.4,0.8,15,1.4,27.7c0.6,12.8,1.1,23.3,1.1,23.3
		c0.1,0.1,5-6.8,10.8-15.3c5.9-8.5,11.5-16.6,12.6-18.1l1.9-2.8l4.7,3.3c2.6,1.8,5.5,3.9,6.6,4.7l2,1.4l-20.8,30
		c-11.4,16.4-20.8,30-20.9,30C200.9,807.7,198.3,806,195.3,803.8L195.3,803.8z"/>
	<path class="st0" d="M711,758.1c-9.7-11.4-18-21.3-18.5-21.9c-0.9-1.1-1.4-0.8-9.4,6c-4.6,4-8.7,7-8.9,6.7
		c-0.2-0.3-2.4-2.8-4.8-5.8c-4.3-5-4.5-5.3-3.4-6.4c2.1-2,45-38.1,45.4-38.1c0.4,0,9,10.4,9.3,11.2c0.1,0.3-3.5,3.6-8,7.3
		s-8.2,7-8.2,7.2c-0.1,0.2,8.3,10.2,18.4,22.2c10.2,12,18.5,22,18.4,22.2c-0.1,0.6-11.7,10.1-12.3,10.1
		C728.8,778.9,720.6,769.5,711,758.1L711,758.1z"/>
	<path class="st0" d="M470.2,754.3c-7.3-4.3-6.8-14.6,0.9-18.2l3.1-1.4l0.1-22.7c0-19.8-0.1-22.8-0.9-22.8c-0.8,0-0.9-1.1-0.9-6.6
		s0.2-6.6,0.9-6.6c0.7,0,0.9-0.8,0.9-3.1c0-2.4-0.3-3.1-0.9-3.1c-0.8,0-0.9-1.1-0.9-6.6c0-5.3,0.2-6.7,0.9-7
		c0.7-0.3,0.9-1.4,0.9-4.1c0-2.9-0.2-3.7-0.9-3.7c-0.8,0-0.9-1-0.9-5s0.2-5,0.9-5c0.6,0,0.9-0.7,0.9-2.2c0-1.5-0.3-2.2-0.9-2.2
		c-0.8,0-0.9-1.1-0.9-6s0.2-6,0.9-6c0.8,0,0.9-4.3,0.8-36.8l-0.2-36.9l-7.7-0.2l-7.7-0.2v-8.4v-8.4l-8-0.2l-8-0.2l-0.2-8l-0.2-8
		h-6.8h-6.9v-6.6v-6.6h-7.5h-7.5v-6.3V489h-80.7h-80.8l-1.2,2.8c-3.1,7.5-12.7,9.3-18.5,3.5c-6.9-6.9-3.5-18.4,6.1-20.4
		c4.8-1,10.9,2.6,12.7,7.5l0.8,2.2h83h83v6.3v6.3h7.5h7.5v6.6v6.6h6.9h6.8l0.2,8l0.2,8l8,0.2l8,0.2v8.4v8.5h7.8h7.8v39.2
		c0,34.6,0.1,39.1,0.9,38.8c0.8-0.3,0.9,0.6,0.9,5.6c0,5-0.2,6-0.9,6c-0.6,0-0.9,0.7-0.9,2.2c0,1.5,0.3,2.2,0.9,2.2
		c0.8,0,0.9,1,0.9,5s-0.2,5-0.9,5c-0.8,0-0.9,0.9-0.9,4.1c0,3.5,0.2,4.1,0.9,3.8c0.8-0.3,0.9,0.7,0.9,6.5c0,5.7-0.2,6.9-0.9,6.9
		c-0.7,0-0.9,0.8-0.9,3.1c0,2.4,0.3,3.1,0.9,3.1c0.8,0,0.9,1.1,0.9,6.6s-0.2,6.6-0.9,6.6c-0.8,0-0.9,3-0.9,23.2v23.1l2.3,1.1
		c3.5,1.6,5.9,5.4,5.9,9.2c0,6.1-3.9,10-10.3,10.4C473.4,755.7,472.2,755.4,470.2,754.3L470.2,754.3z M245,491.9
		c1.8-1.8,2.1-2.6,2.1-5.1c0-2.5-0.3-3.3-2.1-5.1c-1.8-1.8-2.6-2.1-4.8-2.1c-2.1,0-3,0.4-4.8,2.1c-1.8,1.8-2.1,2.6-2.1,5.1
		c0,2.5,0.3,3.3,2.1,5.1c1.8,1.8,2.6,2.1,4.8,2.1C242.3,494.1,243.2,493.7,245,491.9z"/>
	<path class="st0" d="M110.1,729.4c-6.9-2.3-14.7-8.6-19.5-15.8c-7.9-11.9-6.9-25.2,2.7-35.8c3.4-3.8,34.9-31.9,35.7-31.9
		c0.7,0,10.5,11,10.5,11.8c0,0.3-6.6,6.4-14.7,13.5c-16.4,14.4-19.6,17.6-21.5,21.3c-3,5.9-1,13.2,5,18.1c5.5,4.4,11.5,4.6,17.4,0.6
		c1.5-1,9.8-8.1,18.5-15.8c8.7-7.7,16-14.1,16.2-14.2c0.7-0.3,10.9,11.7,10.4,12.4c-0.9,1.5-33.5,29.9-36.6,31.8
		C126.8,730.2,117.4,731.8,110.1,729.4L110.1,729.4z"/>
	<path class="st0" d="M490.2,719.5c-5.5-2.8-8.1-8.3-6.6-14c0.8-3.1,4-6.8,6.7-8l2.1-0.8V692c0-3.8-0.2-4.7-0.9-4.7
		c-0.8,0-0.9-1.1-0.9-6.6s0.2-6.6,0.9-6.6c0.7,0,0.9-0.8,0.9-3.1c0-2.4-0.3-3.1-0.9-3.1c-0.8,0-0.9-1.2-0.9-6.9s0.2-6.9,0.9-6.9
		c0.8,0,0.9-0.8,0.9-3.8c0-2.9-0.2-3.8-0.9-3.8c-0.8,0-0.9-1-0.9-5.3c0-4.2,0.2-5.5,0.9-5.7c0.5-0.3,0.9-1.2,0.9-2.2
		c0-1.3-0.3-1.7-0.9-1.4c-0.8,0.3-0.9-0.5-0.9-5.3c0-4.6,0.2-5.7,0.9-5.7c0.8,0,0.9-4.9,0.9-40.5v-40.4l4.9-0.2l4.8-0.2l0.2-4.2
		l0.2-4.3h4h4.1v-4.4v-4.4h4.1h4.1v-4.7v-4.7h4.7h4.7v-20.1v-20.1h119.2c109.8,0,119.2-0.1,119.2-1c0-1.7,2.4-5.1,4.6-6.5
		c6.4-3.9,14.9-0.8,16.7,6.2c1.8,6.5-3.6,13.1-10.6,13.2c-3.3,0-7.4-2.3-9.3-5.1l-1.6-2.4l-116.7,0.1l-116.7,0.2l-0.2,19.9
		l-0.1,19.9h-4.4h-4.3l-0.2,4.6l-0.2,4.5l-3.9,0.2l-4,0.2v4.3v4.4h-4.4h-4.4v4.4v4.4h-4.7h-4.7v37.6c0,33.1,0.1,37.6,0.9,37.6
		c0.8,0,0.9,1,0.9,5.3c0,4.2-0.2,5.5-0.9,5.7c-0.5,0.3-0.9,1.1-0.9,1.9c0,0.9,0.4,1.5,0.9,1.5c0.8,0,0.9,1.1,0.9,5.6
		c0,4.6-0.2,5.6-0.9,5.6s-0.9,0.8-0.9,3.8c0,2.9,0.2,3.8,0.9,3.8s0.9,1.2,0.9,6.8c0,5.5-0.2,6.9-0.9,7.2c-0.6,0.3-0.9,1.3-0.9,3.2
		c0,2.1,0.3,2.8,0.9,2.8c0.8,0,0.9,1.1,0.9,6.5c0,5.2-0.2,6.6-0.9,6.9c-0.8,0.3-0.9,1.5-0.9,5.4c0,5,0.1,5.1,1.8,5.7
		c5.5,2.1,8.5,8.7,6.7,14.7C503.9,718.8,495.9,722.5,490.2,719.5z M497.7,715.3c5.2-2.2,5.4-10.6,0.3-13.2c-2.3-1.2-4-1.2-6.3,0
		c-2.6,1.3-3.8,3.3-3.8,6.5c0,3.2,1.4,5.6,4.1,6.8C494.5,716.3,495.1,716.3,497.7,715.3L497.7,715.3z"/>
	<path class="st0" d="M786.2,704l-11.3-9.1l-24.8-2.9c-13.6-1.6-25.2-2.8-25.8-2.8c-0.6,0-1.1-0.2-1.1-0.5
		c0-0.9,11.4-14.6,12.2-14.6c0.4,0,7.8,1,16.4,2.3c8.5,1.2,15.6,2.1,15.8,1.9c0.2-0.2-2.1-7-5.1-15.2c-2.9-8.2-5.5-15.2-5.5-15.6
		c-0.3-0.9,10.8-14.9,11.4-14.4c0.2,0.3,4.1,11.3,8.6,24.6l8.2,24.2l10.9,8.8c6,4.8,11,9.2,11.1,9.5c0.1,0.5-4.8,7-9.3,12.4
		C797.6,712.8,792.3,708.9,786.2,704L786.2,704z"/>
	<path class="st0" d="M138.8,463.3c-2.9-0.8-6.3-4.5-7.1-7.5c-1.8-6.5,3.6-13.1,10.7-13.2c4.6,0,10.7,4.7,10.7,8.4v1.3l146.8-0.2
		l146.8-0.1V306.9V161.9l-2.1-0.8c-1.2-0.4-3-1.8-4.1-2.9c-7.7-8.8,0.3-22.7,11.2-19.8c3.1,0.8,6.8,4,7.9,6.7
		c1.1,2.4,1.1,7.9,0.2,9.8c-1.2,2.3-4.5,5.5-6.6,6.4l-2.1,0.9v147.1v147.2H302.3H153.6l-0.1-1.4c-0.1-1.1-0.2-0.9-0.6,0.5
		C151.6,461.4,144.8,465.1,138.8,463.3L138.8,463.3z M453.6,155.4c1.9-1.7,2.1-2.2,2.1-5.4s-0.2-3.7-2.1-5.4
		c-5.8-5.2-14.4,1.4-11,8.5C444.6,157.5,450,158.6,453.6,155.4z"/>
	<path class="st0" d="M702.2,453.5c-2.8-1.4-4.6-3.3-5.8-6l-1.1-2.4h-83.6h-83.6v-6.6V432h-7.2h-7.2v-6.3v-6.2l-6.7-0.2l-6.8-0.2
		l-0.2-8.3l-0.2-8.3h-7.5h-7.5v-7.8v-7.8h-7.5h-7.5v-74v-74l-1.4-0.4c-2.3-0.7-5.5-3.3-6.5-5.3c-1.2-2.3-1.2-7.1,0-9.4
		c3.6-7,15.1-7.6,19.1-0.9c3.3,5.4,1.7,11.5-3.8,14.6l-3.1,1.7l0.2,71.5l0.1,71.5l7.4,0.2l7.3,0.2v7.8v7.8h7.8h7.8v8.5v8.5h6.9h6.9
		v6.3v6.3h6.9h6.9v6.3v6.3H614h81.5l0.4-1.4c1.9-6.1,9.6-9.7,15.6-7.2c4,1.6,7.3,7,7.3,11.7c-0.1,3.8-4,9.2-7.7,10.6
		C708.5,454.9,704.4,454.7,702.2,453.5L702.2,453.5z M710.5,448.9c2.5-1.5,3.5-3.3,3.5-6.4c0-4.9-4.5-8.2-9.1-6.8
		c-6,1.8-6.6,11-0.9,13.5C706.7,450.4,708.1,450.3,710.5,448.9z"/>
	<path class="st0" d="M817.7,377c-4.1-13.7-7.2-25.1-6.9-25.3c0.6-0.5,67.9-20.7,69.1-20.7c0.5,0,5.4,15.1,5,15.4
		c-0.1,0.1-12.5,3.8-27.7,8.3c-15.1,4.5-27.6,8.3-27.7,8.4c-0.1,0.1,2.1,7.8,4.9,17.3c2.8,9.4,5,17.3,4.8,17.4
		c-0.4,0.4-12.5,4.1-13.4,4.1C825.3,401.9,821.8,390.7,817.7,377z"/>
	<path class="st0" d="M44.2,376.2c-18.3-6.5-33.6-12-34.1-12.4c-0.8-0.5-0.5-1.7,1.6-7.5l2.4-6.9l26.1-8.5c14.4-4.6,26-8.6,25.7-8.8
		c-0.3-0.3-9.3-3.6-20.1-7.3c-10.9-3.8-19.8-7.1-20-7.3c-0.2-0.2,0.8-3.7,2.3-7.8l2.6-7.5l7.8,2.8c4.3,1.5,19.6,6.9,34,11.9
		c14.4,5.1,26.3,9.4,26.6,9.7c0.5,0.4-2.5,10-3.9,12.4c-0.3,0.6-11.3,4.5-27.4,9.7c-14.7,4.8-26.9,8.7-27,8.8
		c-0.1,0.1,9.3,3.6,21.1,7.7c11.7,4.1,21.3,7.7,21.3,7.9c0,0.4-2.8,8.5-4.4,13c-0.4,1.1-0.9,2-1.1,1.9
		C77.6,387.9,62.5,382.7,44.2,376.2L44.2,376.2z"/>
	<path class="st0" d="M804.9,338.9l-3.8-7.7l5.6-6.2c3-3.5,5.5-6.6,5.6-7.1c0-0.4-3-6.7-6.6-14l-6.6-13.2l-5.5,0.4
		c-3,0.3-6.9,0.6-8.7,0.8l-3.3,0.4L778,285c-1.9-4-3.4-7.5-3.2-7.7c0.2-0.3,18.1-1.4,39.9-2.7l39.5-2.3l3.3,6.7
		c2.9,6,3.2,6.8,2.4,7.8c-1.4,1.8-48.9,57.5-50.1,58.7C808.9,346.6,808.6,346.2,804.9,338.9L804.9,338.9z M831.4,297
		c4.3-4.9,7.8-9,7.7-9.1c-0.3-0.3-23.1,1.6-23.4,1.9c-0.4,0.3,7.1,16.1,7.6,16.1C823.4,305.9,827,301.9,831.4,297z"/>
	<path class="st0" d="M77.8,290.5c-12.8-17.4-23.3-32-23.3-32.4c0-0.4,1.6-3.5,3.6-6.9c3.2-5.5,3.8-6.1,5.1-5.8
		c0.9,0.1,18.6,2.5,39.5,5.3c20.8,2.8,38,5.1,38.1,5.2c0.2,0.1-5.5,10-7.6,13.4l-0.9,1.3l-7.4-1.1c-4.1-0.6-8-1.1-8.7-1.2
		c-1.1,0-2.8,2.4-9,12.9c-4.3,7.2-7.4,13.2-7.2,13.6c0.3,0.4,2.5,3.5,5,6.8c2.5,3.3,4.6,6.4,4.6,6.8c0,0.9-7.6,13.8-8.2,13.8
		C101.3,322.2,90.6,307.9,77.8,290.5z M94.9,273.3c2.3-4,4-7.3,3.8-7.5c-0.3-0.3-23.1-3.9-23.3-3.6c-0.1,0.1,3.1,4.4,7.2,9.7
		c4,5.3,7.5,9.3,7.7,9C90.5,280.7,92.6,277.3,94.9,273.3L94.9,273.3z"/>
	<path class="st0" d="M778.9,270.1c-14.3-2.2-26.5-12.9-31.4-27.4c-2.1-6.2-1.9-16.9,0.3-22.8c3.7-9.8,10.4-17.3,19.6-21.9
		c19.3-9.5,40.9-1.9,51.4,18.3c2.9,5.6,4.1,10.4,4.1,17.1v5.5h-3.6c-2,0-5.5-0.2-7.8-0.4l-4.1-0.4l-0.4-5.3c-0.3-2.9-1-6.8-1.7-8.7
		c-1.8-4.8-6.5-9.7-11.3-11.9c-3.5-1.6-4.4-1.7-9.1-1.4c-4.3,0.3-5.9,0.6-9.3,2.4c-13.3,6.7-17.6,22.5-9.1,33.2
		c3.3,4.1,7,6.5,13.1,8.3c4.8,1.4,5,1.5,4.8,3c-0.2,0.9-0.6,4.1-1,7.2c-0.4,3-0.9,5.6-1.2,5.6C782,270.4,780.5,270.3,778.9,270.1z"
		/>
	<path class="st0" d="M117.5,231.4c-20.3-6.7-37.3-12.5-37.6-12.7c-0.4-0.4,9.7-13.2,10.9-13.7c0.2-0.1,10.2,3.4,22.3,7.8
		c12,4.3,23.4,8.4,25.2,9.1l3.3,1.1l-0.8-1.4c-0.4-0.8-6.3-11.4-13.2-23.5L115.3,176l3.5-4.2c6.3-7.7,7.8-9.2,8.2-8.8
		c0.7,0.6,36.8,69,36.8,69.6c0,0.5-6.1,8.2-8.4,10.4C154.7,243.4,144.7,240.4,117.5,231.4L117.5,231.4z"/>
	<path class="st0" d="M717.9,212.4l-5.6-5.6l11.5-11.7c6.4-6.5,17.8-18.1,25.3-25.8c7.6-7.7,13.9-13.9,14.2-13.9
		c0.2,0,2.9,2.4,6,5.3l5.6,5.3l-5.3,5.5c-11.6,12.2-45.4,46.7-45.8,46.7C723.6,218.1,720.9,215.5,717.9,212.4L717.9,212.4z"/>
	<path class="st0" d="M163,179.7c-6.4-20.7-11.6-38-11.6-38.3c0-0.3,2.5-2.6,5.6-5.2l5.6-4.6l35.7,17.8
		c19.6,9.8,35.6,18.1,35.4,18.4c-0.1,0.3-3,2.9-6.4,5.8l-6.3,5.2l-7.4-3.9c-4-2.1-7.7-3.9-8-3.9c-0.5,0-18,14.4-22.5,18.5
		c-0.7,0.6-0.4,2.2,1.7,8.9c1.4,4.5,2.6,8.3,2.6,8.5c0,0.4-11.9,10.5-12.5,10.5C174.8,217.4,169.4,200.4,163,179.7L163,179.7z
		 M184.6,169.1c3.7-3.1,6.6-5.8,6.5-6c-0.5-0.4-20.8-10.8-20.9-10.7c-0.3,0.3,6.9,22.4,7.3,22.4
		C177.7,174.8,180.9,172.2,184.6,169.1z"/>
	<path class="st0" d="M697.4,192.8L692,189l-0.4-5.6c-0.2-3.1-0.4-11-0.4-17.6c-0.1-6.6-0.3-17.1-0.5-23.3l-0.4-11.2l-13.1,18
		c-7.2,9.9-13.3,18.2-13.5,18.3c-0.7,0.4-13.2-8.7-12.9-9.4c0.3-0.7,40.9-56.6,42.1-58c0.7-0.7,1.8-0.2,6.8,3.5l5.9,4.3l0.4,11.7
		c0.3,6.4,0.4,16.4,0.5,22.3c0.1,5.9,0.3,13.1,0.5,16.1l0.4,5.4l12.5-17.3c6.9-9.5,12.7-17.4,13-17.6c0.8-0.5,13,8.8,12.7,9.7
		c-0.4,0.9-42.3,58.5-42.7,58.5C702.8,196.7,700.4,195,697.4,192.8L697.4,192.8z"/>
	<path class="st0" d="M232,162.2c-1.2-0.4-2.4-0.9-2.7-1.1c-0.3-0.3,0.1-3.8,0.9-7.8c1.3-6.8,1.5-7.3,2.7-7
		c3.5,1.1,9.2,1.1,11.8,0.1c4.2-1.6,6.3-4.1,6.5-8c0.3-4,1-2.6-14.5-28.7c-8.7-14.6-11.5-19.9-10.9-20.3c3-1.9,13.8-8.1,13.9-7.9
		c0.1,0.1,6,9.9,13,21.8c14.6,24.7,15.9,27.7,15.5,35.4c-0.3,5.3-1.5,8.4-4.8,12.8c-2.1,2.8-9.4,7.8-13.8,9.5
		C245.6,162.6,235.6,163.2,232,162.2L232,162.2z"/>
	<path class="st0" d="M633.5,149.6c-3.6-1.7-6.6-3.2-6.8-3.3c-0.1-0.1,2.6-5.9,5.8-12.9c3.3-7,5.9-13.1,5.7-13.5
		c-0.3-0.6-25.4-12.5-25.7-12.2c-0.1,0.1-2.8,5.9-6,12.8c-3.2,6.9-6,12.7-6.2,13c-0.2,0.2-3.7-1.2-7.7-3.1l-7.3-3.6l15.3-32.6
		C609,76.2,616,61.3,616.1,61c0.2-0.5,14.9,6.1,14.9,6.7c0,0.2-2.7,6-6,13c-3.3,7-5.8,12.7-5.8,12.8c0.9,0.9,25.9,12,26.2,11.7
		c0.3-0.3,2.9-5.8,6-12.4c3-6.5,5.7-12.2,6-12.4c0.4-0.5,15,5.8,15,6.5c-0.1,0.2-6.9,15-15.3,32.9c-8.9,19.1-15.6,32.7-16.1,32.7
		C640.5,152.7,637.1,151.3,633.5,149.6L633.5,149.6z"/>
	<path class="st0" d="M294.6,129c-8.4-2.3-15.6-7.5-20.6-14.9c-6.5-9.8-8.4-22.6-4.8-33.2c4.1-11.9,12.6-20.3,25-24.6
		c6.1-2.1,15.9-2.6,22.1-1.2c19.6,4.6,32,24.8,27.7,45c-2.8,13.4-14.1,24.7-28.7,28.7C309.5,130.6,300.5,130.6,294.6,129z
		 M314.3,113.2c4.6-1.7,9.2-5.8,11.5-10.4c1.7-3.3,1.9-4.3,1.9-9.7c0-5.5-0.2-6.3-2-10.1c-6.7-13.7-21.9-17.4-33.9-8.3
		c-2.9,2.2-5.6,6.8-6.8,11.5c-3.1,12,5.1,25.4,17.3,28C306.4,115.2,309.5,114.9,314.3,113.2L314.3,113.2z"/>
	<path class="st0" d="M550.7,118.4c-11.7-3-20.4-9.9-25.2-19.9c-5-10.5-4.8-22.5,0.6-33.7c5.6-11.7,16.6-19.4,29.6-20.8
		c7.8-0.8,18.9,1.8,26.3,6.3c4.6,2.8,12.5,11.1,12.5,13.1c0,0.4-2.9,2.7-6.3,5.1l-6.4,4.3l-1.3-1.9c-2.6-3.7-7.2-7.7-10.8-9.5
		c-3.3-1.6-4.4-1.8-9.3-1.8c-5.1,0-6,0.2-9,1.8c-8.5,4.8-14,15.9-12.2,25c2.1,10.4,9.5,17.1,19.8,17.8c3.8,0.3,5.1,0.1,9.2-1.3
		c2.6-0.9,5.2-1.8,5.9-1.8c0.9-0.1,2,1.4,4.5,5.8c1.9,3.3,3.4,6.1,3.4,6.3c0,0.6-8.6,4.4-12.1,5.3
		C565.6,119.9,555.7,119.7,550.7,118.4z"/>
	<path class="st0" d="M502.4,106.6c-1.2-0.2-12.5-1.2-25.2-2.3c-12.7-1.1-23.3-2.3-23.5-2.4c-0.4-0.4,5.7-71.8,6.2-72.3
		c0.4-0.3,54.3,4.5,54.6,4.8c0.3,0.3-0.8,13.9-1.1,14.2c-0.1,0.1-8.7-0.6-19.1-1.5c-15.2-1.3-19.1-1.5-19.4-0.9
		c-0.9,1.4-1.5,12.7-0.8,13.2c0.4,0.3,7.9,1.1,16.8,1.8c8.8,0.8,16.2,1.6,16.4,1.7c0.4,0.3-0.9,13.5-1.4,14
		c-0.2,0.2-7.7-0.3-16.7-1.1c-9.6-0.8-16.6-1.2-16.9-0.9c-0.3,0.3-0.7,3.6-0.9,7.3c-0.4,6.7-0.4,6.7,1,7c0.8,0.2,8.7,0.9,17.5,1.6
		c8.8,0.7,16.9,1.4,18.1,1.6l2.1,0.3l-0.4,5.5c-0.7,8.7-0.8,8.9-3.1,8.8C505.5,106.9,503.6,106.7,502.4,106.6L502.4,106.6z"/>
	<path class="st0" d="M407.7,96.6c-1.9-23.1-4.2-47.9-4.5-48.1c-0.2-0.2-5,0.1-10.9,0.7c-5.8,0.5-10.6,0.8-10.7,0.7
		c-0.3-0.3-1.8-14.5-1.5-14.7c0.3-0.2,57.3-5.3,59.3-5.3c1.3,0,1.3,0.4,1.8,7.2c0.3,4,0.4,7.4,0.3,7.5c-0.1,0.1-3.6,0.5-7.8,0.9
		c-4.1,0.4-9,0.9-10.7,1l-3.1,0.4l2.5,28.7l2.5,28.7l-1.9,0.4c-1,0.2-4.7,0.6-8.2,0.8l-6.3,0.4L407.7,96.6L407.7,96.6z"/>
</g>
<g>
	<path class="st1" d="M444.4,688.2c-67.6-7-125.3-41-161.7-95.1c-5.3-7.9-11.9-19-15.5-26.1l-1.9-4h8h8l3.9,6.8
		c8,14,22,31.9,34.9,44.9c32.2,32.5,70.8,52.7,113,59.1c10.2,1.5,19.4,2.2,30.6,2.2h10.5v6.6v6.6l-11.1-0.1
		C456.9,689,448.5,688.7,444.4,688.2L444.4,688.2z"/>
	<path class="st1" d="M478.6,682.1v-6.5l7.1-0.9l7-0.9v6.6v6.7l-6.1,0.7c-3.4,0.4-6.5,0.7-7,0.7
		C478.7,688.5,478.6,687.3,478.6,682.1L478.6,682.1z"/>
	<path class="st1" d="M497.1,679.9V673l7.5-1.7c50.2-11.6,92.1-39.3,122.5-80.9c4.6-6.4,12.5-18.7,15.8-24.7l1.5-2.7h7.8h7.8l-3,5.5
		c-17.8,32.7-46.6,64.7-76.5,84.8c-23.2,15.6-50.7,27-76.4,31.7c-2.8,0.5-5.6,1.1-6.1,1.2C497.2,686.6,497.1,685.6,497.1,679.9
		L497.1,679.9z"/>
	<path class="st1" d="M456.5,669.6c-14.2-1-31.1-4.1-46.4-8.4c-40.6-11.6-73.8-32.4-97.9-61.6c-7.5-9-18.9-26.9-22.1-34.5l-0.9-2.1
		h6.1h6.2l2.1,3.3c3.3,5.1,13.5,17.6,20.3,24.9c28.7,30.6,62.9,51.7,97.9,60.3c13.6,3.3,23.6,4.5,38.7,4.6l13.7,0.1v6.6v6.6
		l-3.8,0.4C466.1,670.4,466.3,670.4,456.5,669.6L456.5,669.6z"/>
	<path class="st1" d="M478.6,662.6c0-7.7-1.1-6.6,8.5-8.1l5.6-0.8l-0.2,7l-0.2,7l-2,0.4c-1.1,0.3-4.2,0.6-6.8,0.8l-4.9,0.4
		L478.6,662.6L478.6,662.6z"/>
	<path class="st1" d="M497.1,660.1v-7l9.1-2.3c27.5-6.9,53.1-19.4,74-36.1c14.8-11.8,30-29,40.3-45.5l3.8-6.1h7.5h7.4l-2,3.6
		c-4.8,8.7-13.2,20.9-20.8,30.2c-6.6,8.1-23.6,24.7-31.7,31c-24.3,18.7-49.8,30.9-77.8,37.1c-4,0.9-7.8,1.7-8.5,1.9
		C497.1,667.1,497.1,666.8,497.1,660.1L497.1,660.1z"/>
	<path class="st1" d="M454.1,647.9c-6.3-0.4-18.9-2.3-25.3-3.7c-47-10.4-86.1-37-112.9-77.1c-5.1-7.7-14.2-23.3-14.2-24.6
		c0-0.6,1.7-0.8,6.8-0.8h6.8l2.6,4.8c10.1,18.8,28.6,40.7,46.7,55.4c16.7,13.5,40.1,25.5,60.6,31.1c13.2,3.5,27.1,5.4,40.3,5.5h8.7
		v5v4.9l-8.6-0.1C460.8,648.2,455.7,648.1,454.1,647.9L454.1,647.9z"/>
	<path class="st1" d="M478.6,642.8c0-5.6-0.8-5,7.7-6.3c2.3-0.4,4.6-0.8,5.1-1c0.9-0.3,1,0.4,1,5.2v5.6l-5.9,0.7
		C477.8,648.1,478.6,648.5,478.6,642.8L478.6,642.8z"/>
	<path class="st1" d="M497.3,639.7l-0.2-5.5l3.8-0.8c5.5-1.1,22.7-7,30.7-10.4c35.5-15.1,62.9-40.3,79.6-73.3l4-7.7l6-0.2
		c3.3-0.1,6.1,0,6.1,0.2c0,1.4-8.7,17-13.8,24.7c-8,12-15,20.6-24.6,30.3c-19.8,19.9-43.9,34.9-69,42.9c-6,1.9-19.7,5.3-21.3,5.3
		C497.6,645.2,497.4,644.4,497.3,639.7z"/>
	<path class="st1" d="M456.4,633.3c-13.4-1.4-29.9-5.1-42.7-9.5c-36.4-12.5-64.2-33.9-82.6-63.6c-3.7-6-9.3-16.7-9.3-17.8
		c0-0.4,2.3-0.6,6-0.6h6l1.8,3.6c7.4,14.6,21.8,31.9,35.5,42.8c24.6,19.5,55.7,31.1,88.8,32.9c3.6,0.2,8.3,0.5,10.5,0.7l3.9,0.4v5.9
		v5.9l-6.4-0.1C464.2,633.8,459,633.6,456.4,633.3L456.4,633.3z"/>
	<path class="st1" d="M478.6,627.7c0-4,0.3-5.8,0.8-5.9c0.4-0.1,3.6-0.5,7-0.8l6.3-0.5l-0.3,5.6l-0.3,5.6l-5,0.8
		c-2.8,0.4-5.8,0.8-6.7,0.8l-1.8,0.1V627.7L478.6,627.7z"/>
	<path class="st1" d="M497.3,625.4l-0.2-5.5l7.5-1.9c34.2-9,62.7-29.5,85.3-61.3c2.8-3.9,6.1-8.8,7.4-11l2.3-3.8h5.6
		c3.5,0,5.6,0.3,5.6,0.6c0,0.8-4.6,9-8,14.4c-5.9,9.2-20.4,27-26.1,31.7c-1.2,1.1-4.3,3.8-6.8,6c-17.7,15.9-41.3,28.5-64.2,34.2
		c-3.5,0.9-6.8,1.7-7.3,1.9C497.6,630.9,497.4,630.3,497.3,625.4L497.3,625.4z"/>
	<path class="st1" d="M602.8,397.6c-1.8-3.6-5.6-10-8.5-14.4c-18.8-28.1-44.9-48.7-75-59.5l-4.9-1.8v-4.9c0-2.9,0.3-5,0.6-5
		c1.6,0,15.4,5.5,22.3,8.8c27.9,13.5,50.6,32.9,66.2,56.5c4,6,12.4,21.6,13.4,24.9c0.4,1.3,0.3,1.4-5.1,1.6l-5.6,0.2L602.8,397.6z"
		/>
	<path class="st1" d="M621.8,403.6c-0.3-0.4-1.3-2.5-2.1-4.6c-2.4-6.2-7.3-15.2-12.9-23.5c-20.6-31-52.5-55-91.4-68.6
		c-0.9-0.3-1.1-1.2-1.1-5.1v-4.7l1.8,0.4c4.6,1,20.6,6.8,26.5,9.5c18.8,8.8,34,19.6,49.2,34.9c12.7,12.7,23.1,26.8,31.4,42.2
		c3.7,6.8,9,18.5,9,19.6C632.2,404.7,622.5,404.6,621.8,403.6L621.8,403.6z"/>
	<path class="st1" d="M301.7,394.6c0-0.9,3.5-7.9,6.9-13.9c8.7-15.1,17.7-26.8,30.7-39.8c10.2-10.2,16.3-15.2,27-22.5
		c17.3-11.6,37.2-20.2,57.8-24.8c4-0.9,7.3-1.6,7.6-1.6s0.4,2.3,0.3,5.1l-0.2,5.1l-6.9,1.8c-46,11.5-86.1,43.1-107.6,84.8l-3.1,6.1
		h-6.2C304.5,395,301.7,394.8,301.7,394.6L301.7,394.6z"/>
	<path class="st1" d="M321.4,389.5c7.7-14.2,16.4-25.8,29.5-38.8c23.3-23.3,47.2-36.5,79.5-43.8l1.7-0.4v5.6v5.5l-5.5,1
		c-31.7,5.8-65.1,31.2-88.8,67.4l-5.8,8.8l-6.8,0.1l-6.8,0.1L321.4,389.5L321.4,389.5z"/>
	<path class="st1" d="M629.7,380.1c-12.5-23.4-33.1-46.8-55.2-62.7c-12.5-9-28.5-17.7-42-22.7l-6.6-2.5l-0.2-6.8l-0.2-6.9l5.5,2.1
		c43.8,16.4,81.5,45.9,104.1,81.4c4.1,6.5,12.1,22,12.1,23.5c0,0.6-1.7,0.8-7.2,0.8H633L629.7,380.1L629.7,380.1z"/>
	<path class="st1" d="M650.2,380.3c-3.8-8.1-9.7-18.2-15.6-26.8c-26.2-38.3-61.7-65.1-102.9-77.4l-6.1-1.8v-6.8
		c0-5.3,0.2-6.8,0.9-6.8c1.1,0,13.7,4.3,20.4,7c7.8,3.1,23.7,11.1,32,16.1c15.7,9.5,28.2,19.1,41,31.5
		c13.5,13.1,22.8,24.6,31.9,39.1c4.8,7.7,15.6,28.9,15.6,30.6c0,1-0.8,1.1-7.2,1.1H653L650.2,380.3z"/>
	<path class="st1" d="M265.9,373.4c3.4-9,16-28.9,26.7-42.4c8.2-10.2,23.7-25.8,33.2-33.4c21.4-17.2,45.8-30.1,70.9-37.8
		c6.3-1.9,10.1-2.8,22.7-5.6c1.4-0.3,1.4-0.3,1.4,6.8v7.2l-4.5,0.6c-6.8,1.1-19.4,4.6-27.9,8c-42.3,16.6-77.7,48.2-103.4,92
		l-3.6,6.1h-8.1h-8.2L265.9,373.4L265.9,373.4z"/>
	<path class="st1" d="M287.9,371.3c14.1-25.1,36.6-50.1,60.5-67.2c19.4-13.8,39.4-23,62.7-29l9.4-2.4l0.2,6.6
		c0.1,3.6,0.1,6.7-0.1,6.9c-0.2,0.1-2.5,0.8-5.2,1.4c-16.6,4-36.8,12.9-53.3,23.6c-22.8,14.9-44.5,37.8-57.2,60.5l-1.8,3.1h-8.7
		h-8.7L287.9,371.3L287.9,371.3z"/>
</g>
</svg>
